<?xml version="1.0" encoding="utf-8"?>
<svg width="1024px" height="1024px" viewBox="0 0 1024 1024" version="1.1" xmlns:xlink="http://www.w3.org/1999/xlink" xmlns="http://www.w3.org/2000/svg">
  <defs>
    <path d="M512 0L512 0C678.096 0 761.145 0 814.757 19.7788Q818.81 21.274 822.821 22.8781Q826.833 24.4821 830.799 26.1939Q834.765 27.9057 838.684 29.7239Q842.603 31.5421 846.471 33.4654Q850.339 35.3887 854.154 37.4158Q857.969 39.4428 861.727 41.5721Q865.486 43.7014 869.186 45.9314Q872.886 48.1614 876.524 50.4904Q880.163 52.8195 883.737 55.2459Q887.311 57.6723 890.818 60.1943Q894.326 62.7164 897.764 65.3321Q901.201 67.9479 904.568 70.6556Q907.934 73.3632 911.226 76.1607Q914.517 78.9582 917.732 81.8436Q920.947 84.729 924.083 87.7001Q927.219 90.6712 930.274 93.7258Q933.329 96.7805 936.3 99.9165Q939.271 103.052 942.156 106.268Q945.042 109.483 947.839 112.774Q950.637 116.066 953.344 119.432Q956.052 122.798 958.668 126.236Q961.283 129.674 963.805 133.182Q966.328 136.689 968.754 140.263Q971.18 143.837 973.509 147.476Q975.839 151.114 978.068 154.814Q980.298 158.514 982.428 162.272Q984.557 166.031 986.584 169.846Q988.611 173.661 990.534 177.529Q992.458 181.397 994.276 185.316Q996.094 189.235 997.806 193.201Q999.518 197.167 1001.12 201.178Q1002.73 205.189 1004.22 209.242C1024 262.855 1024 345.904 1024 512L1024 512C1024 678.096 1024 761.145 1004.22 814.757Q1002.73 818.81 1001.12 822.821Q999.518 826.832 997.806 830.799Q996.094 834.765 994.276 838.684Q992.458 842.602 990.534 846.471Q988.611 850.339 986.584 854.154Q984.557 857.969 982.428 861.727Q980.299 865.486 978.069 869.186Q975.839 872.886 973.51 876.524Q971.18 880.163 968.754 883.737Q966.328 887.311 963.805 890.818Q961.283 894.326 958.668 897.764Q956.052 901.202 953.344 904.568Q950.637 907.934 947.839 911.226Q945.042 914.517 942.156 917.732Q939.271 920.948 936.3 924.084Q933.329 927.22 930.274 930.274Q927.219 933.329 924.083 936.3Q920.947 939.271 917.732 942.156Q914.517 945.042 911.226 947.839Q907.934 950.637 904.568 953.344Q901.201 956.052 897.763 958.668Q894.325 961.284 890.818 963.806Q887.311 966.328 883.737 968.754Q880.162 971.181 876.524 973.51Q872.886 975.839 869.186 978.069Q865.486 980.299 861.727 982.428Q857.969 984.557 854.154 986.584Q850.339 988.611 846.471 990.535Q842.602 992.458 838.684 994.276Q834.765 996.094 830.799 997.806Q826.833 999.518 822.821 1001.12Q818.81 1002.73 814.757 1004.22C761.145 1024 678.096 1024 512 1024L512 1024C345.904 1024 262.855 1024 209.242 1004.22Q205.189 1002.73 201.178 1001.12Q197.167 999.518 193.201 997.806Q189.235 996.094 185.316 994.276Q181.397 992.458 177.529 990.534Q173.661 988.611 169.846 986.584Q166.031 984.557 162.273 982.428Q158.514 980.299 154.814 978.069Q151.114 975.839 147.476 973.51Q143.837 971.181 140.263 968.754Q136.689 966.328 133.182 963.806Q129.674 961.284 126.236 958.668Q122.799 956.052 119.432 953.344Q116.066 950.637 112.774 947.839Q109.483 945.042 106.268 942.156Q103.053 939.271 99.9165 936.3Q96.7805 933.329 93.7258 930.274Q90.6712 927.22 87.7001 924.084Q84.7289 920.948 81.8436 917.732Q78.9582 914.517 76.1607 911.226Q73.3632 907.934 70.6556 904.568Q67.9479 901.201 65.3321 897.764Q62.7164 894.325 60.1943 890.818Q57.6723 887.311 55.2459 883.737Q52.8195 880.162 50.4904 876.524Q48.1614 872.886 45.9314 869.186Q43.7014 865.486 41.5721 861.727Q39.4428 857.969 37.4158 854.154Q35.3887 850.339 33.4654 846.471Q31.5421 842.602 29.7239 838.684Q27.9056 834.765 26.1939 830.799Q24.4821 826.832 22.8781 822.821Q21.274 818.81 19.7788 814.757C0 761.145 0 678.096 0 512L0 512C0 345.904 0 262.855 19.7788 209.242Q21.274 205.189 22.8781 201.178Q24.4822 197.167 26.1939 193.201Q27.9057 189.235 29.7239 185.316Q31.5421 181.397 33.4655 177.529Q35.3888 173.661 37.4159 169.846Q39.4429 166.031 41.5722 162.272Q43.7015 158.514 45.9315 154.814Q48.1615 151.114 50.4905 147.476Q52.8196 143.837 55.246 140.263Q57.6724 136.689 60.1944 133.182Q62.7165 129.674 65.3322 126.236Q67.948 122.798 70.6556 119.432Q73.3633 116.066 76.1608 112.774Q78.9583 109.483 81.8436 106.268Q84.729 103.052 87.7001 99.9165Q90.6712 96.7805 93.7258 93.7258Q96.7805 90.6712 99.9165 87.7001Q103.053 84.7289 106.268 81.8436Q109.483 78.9582 112.775 76.1607Q116.066 73.3632 119.432 70.6556Q122.799 67.9479 126.237 65.3321Q129.675 62.7164 133.182 60.1943Q136.689 57.6723 140.263 55.2459Q143.837 52.8195 147.476 50.4904Q151.114 48.1614 154.814 45.9314Q158.514 43.7014 162.273 41.5721Q166.031 39.4428 169.846 37.4158Q173.661 35.3887 177.529 33.4654Q181.397 31.5421 185.316 29.7239Q189.235 27.9056 193.201 26.1939Q197.168 24.4821 201.179 22.8781Q205.19 21.274 209.243 19.7788C262.855 0 345.904 0 512 0Z" id="path_1" />
    <clipPath id="clip_1">
      <use xlink:href="#path_1" clip-rule="evenodd" fill-rule="evenodd" />
    </clipPath>
  </defs>
  <g id="badge">
    <path d="M512 0L512 0C678.096 0 761.145 0 814.757 19.7788Q818.81 21.274 822.821 22.8781Q826.833 24.4821 830.799 26.1939Q834.765 27.9057 838.684 29.7239Q842.603 31.5421 846.471 33.4654Q850.339 35.3887 854.154 37.4158Q857.969 39.4428 861.727 41.5721Q865.486 43.7014 869.186 45.9314Q872.886 48.1614 876.524 50.4904Q880.163 52.8195 883.737 55.2459Q887.311 57.6723 890.818 60.1943Q894.326 62.7164 897.764 65.3321Q901.201 67.9479 904.568 70.6556Q907.934 73.3632 911.226 76.1607Q914.517 78.9582 917.732 81.8436Q920.947 84.729 924.083 87.7001Q927.219 90.6712 930.274 93.7258Q933.329 96.7805 936.3 99.9165Q939.271 103.052 942.156 106.268Q945.042 109.483 947.839 112.774Q950.637 116.066 953.344 119.432Q956.052 122.798 958.668 126.236Q961.283 129.674 963.805 133.182Q966.328 136.689 968.754 140.263Q971.18 143.837 973.509 147.476Q975.839 151.114 978.068 154.814Q980.298 158.514 982.428 162.272Q984.557 166.031 986.584 169.846Q988.611 173.661 990.534 177.529Q992.458 181.397 994.276 185.316Q996.094 189.235 997.806 193.201Q999.518 197.167 1001.12 201.178Q1002.73 205.189 1004.22 209.242C1024 262.855 1024 345.904 1024 512L1024 512C1024 678.096 1024 761.145 1004.22 814.757Q1002.73 818.81 1001.12 822.821Q999.518 826.832 997.806 830.799Q996.094 834.765 994.276 838.684Q992.458 842.602 990.534 846.471Q988.611 850.339 986.584 854.154Q984.557 857.969 982.428 861.727Q980.299 865.486 978.069 869.186Q975.839 872.886 973.51 876.524Q971.18 880.163 968.754 883.737Q966.328 887.311 963.805 890.818Q961.283 894.326 958.668 897.764Q956.052 901.202 953.344 904.568Q950.637 907.934 947.839 911.226Q945.042 914.517 942.156 917.732Q939.271 920.948 936.3 924.084Q933.329 927.22 930.274 930.274Q927.219 933.329 924.083 936.3Q920.947 939.271 917.732 942.156Q914.517 945.042 911.226 947.839Q907.934 950.637 904.568 953.344Q901.201 956.052 897.763 958.668Q894.325 961.284 890.818 963.806Q887.311 966.328 883.737 968.754Q880.162 971.181 876.524 973.51Q872.886 975.839 869.186 978.069Q865.486 980.299 861.727 982.428Q857.969 984.557 854.154 986.584Q850.339 988.611 846.471 990.535Q842.602 992.458 838.684 994.276Q834.765 996.094 830.799 997.806Q826.833 999.518 822.821 1001.12Q818.81 1002.73 814.757 1004.22C761.145 1024 678.096 1024 512 1024L512 1024C345.904 1024 262.855 1024 209.242 1004.22Q205.189 1002.73 201.178 1001.12Q197.167 999.518 193.201 997.806Q189.235 996.094 185.316 994.276Q181.397 992.458 177.529 990.534Q173.661 988.611 169.846 986.584Q166.031 984.557 162.273 982.428Q158.514 980.299 154.814 978.069Q151.114 975.839 147.476 973.51Q143.837 971.181 140.263 968.754Q136.689 966.328 133.182 963.806Q129.674 961.284 126.236 958.668Q122.799 956.052 119.432 953.344Q116.066 950.637 112.774 947.839Q109.483 945.042 106.268 942.156Q103.053 939.271 99.9165 936.3Q96.7805 933.329 93.7258 930.274Q90.6712 927.22 87.7001 924.084Q84.7289 920.948 81.8436 917.732Q78.9582 914.517 76.1607 911.226Q73.3632 907.934 70.6556 904.568Q67.9479 901.201 65.3321 897.764Q62.7164 894.325 60.1943 890.818Q57.6723 887.311 55.2459 883.737Q52.8195 880.162 50.4904 876.524Q48.1614 872.886 45.9314 869.186Q43.7014 865.486 41.5721 861.727Q39.4428 857.969 37.4158 854.154Q35.3887 850.339 33.4654 846.471Q31.5421 842.602 29.7239 838.684Q27.9056 834.765 26.1939 830.799Q24.4821 826.832 22.8781 822.821Q21.274 818.81 19.7788 814.757C0 761.145 0 678.096 0 512L0 512C0 345.904 0 262.855 19.7788 209.242Q21.274 205.189 22.8781 201.178Q24.4822 197.167 26.1939 193.201Q27.9057 189.235 29.7239 185.316Q31.5421 181.397 33.4655 177.529Q35.3888 173.661 37.4159 169.846Q39.4429 166.031 41.5722 162.272Q43.7015 158.514 45.9315 154.814Q48.1615 151.114 50.4905 147.476Q52.8196 143.837 55.246 140.263Q57.6724 136.689 60.1944 133.182Q62.7165 129.674 65.3322 126.236Q67.948 122.798 70.6556 119.432Q73.3633 116.066 76.1608 112.774Q78.9583 109.483 81.8436 106.268Q84.729 103.052 87.7001 99.9165Q90.6712 96.7805 93.7258 93.7258Q96.7805 90.6712 99.9165 87.7001Q103.053 84.7289 106.268 81.8436Q109.483 78.9582 112.775 76.1607Q116.066 73.3632 119.432 70.6556Q122.799 67.9479 126.237 65.3321Q129.675 62.7164 133.182 60.1943Q136.689 57.6723 140.263 55.2459Q143.837 52.8195 147.476 50.4904Q151.114 48.1614 154.814 45.9314Q158.514 43.7014 162.273 41.5721Q166.031 39.4428 169.846 37.4158Q173.661 35.3887 177.529 33.4654Q181.397 31.5421 185.316 29.7239Q189.235 27.9056 193.201 26.1939Q197.168 24.4821 201.179 22.8781Q205.19 21.274 209.243 19.7788C262.855 0 345.904 0 512 0Z" id="badge" fill="#463ACB" stroke="none" />
    <g id="verified_24dp_E3E3E3_FILL1_wght400_GRAD0_opsz24" clip-path="url(#clip_1)">
      <path d="M580 0L580 0L580 580L0 580L0 0L580 0Z" id="verified_24dp_E3E3E3_FILL1_wght400_GRAD0_opsz24" fill="none" stroke="none" transform="translate(222 222)" />
      <path d="M207.833 543.75L161.917 466.417L74.9167 447.083L83.375 357.667L24.1667 290L83.375 222.333L74.9167 132.917L161.917 113.583L207.833 36.25L290 71.2917L372.167 36.25L418.083 113.583L505.083 132.917L496.625 222.333L555.833 290L496.625 357.667L505.083 447.083L418.083 466.417L372.167 543.75L290 508.708L207.833 543.75L207.833 543.75ZM264.626 375.79L401.167 239.249L367.334 204.207L264.626 306.915L212.667 256.165L178.834 289.999L264.626 375.79L264.626 375.79Z" id="Shape" fill="#E3E3E3" fill-rule="evenodd" stroke="none" transform="translate(222 222)" />
    </g>
  </g>
</svg>